<svg xmlns="http://www.w3.org/2000/svg" viewBox="0 0 512 512" role="img" aria-labelledby="emailTitle">
  <title id="emailTitle">Email</title>
  <circle cx="256" cy="256" r="224" fill="#EA4335"/>
  <path d="M144 176h224c17.673 0 32 14.327 32 32v96c0 17.673-14.327 32-32 32H144c-17.673 0-32-14.327-32-32v-96c0-17.673 14.327-32 32-32z" fill="#FFF"/>
  <path d="M144 208v18.745L256 292l112-65.255V208c0-8.837-7.163-16-16-16H160c-8.837 0-16 7.163-16 16z" fill="#FCE8E6"/>
  <path d="m144 224 106.666 62.222a10.667 10.667 0 0 0 10.668 0L368 224v80c0 8.837-7.163 16-16 16H160c-8.837 0-16-7.163-16-16z" fill="#FFF"/>
</svg>
